<svg width="354" height="109" viewBox="0 0 354 109" fill="none" xmlns="http://www.w3.org/2000/svg">
<rect width="354" height="109" fill="white"/>
<path d="M73.4342 73.576C74.6822 73.576 75.7142 73.984 76.5302 74.8C77.3942 75.568 77.8262 76.576 77.8262 77.824C77.8262 79.024 77.3942 80.032 76.5302 80.848C75.7142 81.616 74.6822 82 73.4342 82H50.0342C48.7862 82 47.7302 81.592 46.8662 80.776C46.0502 79.912 45.6422 78.856 45.6422 77.608V35.992C45.6422 34.744 46.0742 33.712 46.9382 32.896C47.8022 32.032 48.9062 31.6 50.2502 31.6C51.4502 31.6 52.4822 32.032 53.3462 32.896C54.2102 33.712 54.6422 34.744 54.6422 35.992V73.576H73.4342ZM89.1679 81.928C87.7759 81.928 86.6959 81.568 85.9279 80.848C85.2079 80.08 84.8479 79 84.8479 77.608V76.384C84.8479 74.992 85.2079 73.936 85.9279 73.216C86.6959 72.448 87.7759 72.064 89.1679 72.064H90.1039C91.4959 72.064 92.5519 72.448 93.2719 73.216C94.0399 73.936 94.4239 74.992 94.4239 76.384V77.608C94.4239 79 94.0399 80.08 93.2719 80.848C92.5519 81.568 91.4959 81.928 90.1039 81.928H89.1679ZM133.181 39.88V52.552H148.733C149.981 52.552 151.013 52.96 151.829 53.776C152.693 54.544 153.125 55.552 153.125 56.8C153.125 57.856 152.693 58.792 151.829 59.608C151.013 60.424 149.981 60.832 148.733 60.832H133.181V77.608C133.181 78.856 132.725 79.912 131.813 80.776C130.949 81.592 129.917 82 128.717 82C127.373 82 126.269 81.592 125.405 80.776C124.589 79.96 124.181 78.904 124.181 77.608V35.992C124.181 34.744 124.589 33.712 125.405 32.896C126.269 32.032 127.325 31.6 128.573 31.6H151.973C153.221 31.6 154.253 32.008 155.069 32.824C155.933 33.592 156.365 34.6 156.365 35.848C156.365 36.904 155.933 37.84 155.069 38.656C154.253 39.472 153.221 39.88 151.973 39.88H133.181ZM183.274 42.76C184.714 42.76 185.914 43.168 186.874 43.984C187.882 44.8 188.386 45.76 188.386 46.864C188.386 48.352 188.002 49.48 187.234 50.248C186.466 50.968 185.554 51.328 184.498 51.328C183.778 51.328 182.962 51.16 182.05 50.824C181.906 50.776 181.57 50.68 181.042 50.536C180.562 50.392 180.034 50.32 179.458 50.32C178.21 50.32 177.01 50.704 175.858 51.472C174.706 52.24 173.746 53.416 172.978 55C172.258 56.536 171.898 58.384 171.898 60.544V77.608C171.898 78.856 171.49 79.912 170.674 80.776C169.858 81.592 168.826 82 167.578 82C166.33 82 165.298 81.592 164.482 80.776C163.666 79.912 163.258 78.856 163.258 77.608V47.872C163.258 46.624 163.666 45.592 164.482 44.776C165.298 43.912 166.33 43.48 167.578 43.48C168.826 43.48 169.858 43.912 170.674 44.776C171.49 45.592 171.898 46.624 171.898 47.872V48.808C173.002 46.84 174.586 45.352 176.65 44.344C178.714 43.288 180.922 42.76 183.274 42.76ZM224.809 42.76C226.057 42.76 227.089 43.168 227.905 43.984C228.721 44.8 229.129 45.856 229.129 47.152V77.608C229.129 78.856 228.721 79.912 227.905 80.776C227.089 81.592 226.057 82 224.809 82C223.561 82 222.529 81.592 221.713 80.776C220.945 79.96 220.537 78.928 220.489 77.68C219.289 79.072 217.657 80.272 215.593 81.28C213.577 82.24 211.441 82.72 209.185 82.72C205.873 82.72 202.873 81.88 200.185 80.2C197.497 78.472 195.361 76.096 193.777 73.072C192.241 70.048 191.473 66.616 191.473 62.776C191.473 58.936 192.241 55.504 193.777 52.48C195.313 49.408 197.401 47.032 200.041 45.352C202.729 43.624 205.681 42.76 208.897 42.76C211.201 42.76 213.361 43.192 215.377 44.056C217.393 44.872 219.097 45.928 220.489 47.224V47.152C220.489 45.904 220.897 44.872 221.713 44.056C222.529 43.192 223.561 42.76 224.809 42.76ZM210.265 74.8C213.385 74.8 215.929 73.672 217.897 71.416C219.865 69.112 220.849 66.232 220.849 62.776C220.849 59.32 219.865 56.44 217.897 54.136C215.929 51.832 213.385 50.68 210.265 50.68C207.193 50.68 204.673 51.832 202.705 54.136C200.737 56.44 199.753 59.32 199.753 62.776C199.753 66.232 200.713 69.112 202.633 71.416C204.601 73.672 207.145 74.8 210.265 74.8ZM259.085 42.76C263.981 42.76 267.365 44.224 269.237 47.152C271.109 50.032 272.045 54.04 272.045 59.176V77.608C272.045 78.856 271.637 79.912 270.82 80.776C270.005 81.592 268.973 82 267.725 82C266.477 82 265.445 81.592 264.629 80.776C263.813 79.912 263.405 78.856 263.405 77.608V59.176C263.405 56.536 262.853 54.472 261.749 52.984C260.645 51.448 258.749 50.68 256.061 50.68C253.277 50.68 251.093 51.496 249.509 53.128C247.925 54.712 247.133 56.728 247.133 59.176V77.608C247.133 78.856 246.725 79.912 245.909 80.776C245.093 81.592 244.061 82 242.812 82C241.565 82 240.533 81.592 239.717 80.776C238.901 79.912 238.493 78.856 238.493 77.608V47.872C238.493 46.624 238.901 45.592 239.717 44.776C240.533 43.912 241.565 43.48 242.812 43.48C244.061 43.48 245.093 43.912 245.909 44.776C246.725 45.592 247.133 46.624 247.133 47.872V49.096C248.429 47.368 250.109 45.88 252.173 44.632C254.285 43.384 256.589 42.76 259.085 42.76ZM298.159 42.76C302.239 42.76 305.527 43.408 308.023 44.704C310.519 45.952 311.767 47.632 311.767 49.744C311.767 50.8 311.455 51.736 310.831 52.552C310.207 53.32 309.391 53.704 308.383 53.704C307.615 53.704 306.991 53.608 306.511 53.416C306.031 53.176 305.551 52.888 305.071 52.552C304.639 52.168 304.207 51.856 303.775 51.616C303.295 51.376 302.575 51.16 301.615 50.968C300.703 50.776 299.959 50.68 299.383 50.68C295.783 50.68 292.951 51.808 290.887 54.064C288.871 56.272 287.863 59.176 287.863 62.776C287.863 66.232 288.895 69.112 290.959 71.416C293.023 73.672 295.663 74.8 298.879 74.8C301.231 74.8 302.983 74.512 304.135 73.936C304.423 73.792 304.807 73.552 305.287 73.216C305.815 72.832 306.295 72.544 306.727 72.352C307.159 72.16 307.687 72.064 308.311 72.064C309.511 72.064 310.447 72.448 311.119 73.216C311.839 73.984 312.199 74.968 312.199 76.168C312.199 77.32 311.527 78.4 310.183 79.408C308.839 80.416 307.063 81.232 304.855 81.856C302.647 82.432 300.295 82.72 297.799 82.72C294.103 82.72 290.839 81.856 288.007 80.128C285.223 78.4 283.063 76.024 281.527 73C279.991 69.928 279.223 66.52 279.223 62.776C279.223 58.888 280.015 55.432 281.599 52.408C283.231 49.384 285.487 47.032 288.367 45.352C291.247 43.624 294.511 42.76 298.159 42.76Z" fill="#5C7AFF"/>
<rect width="8" height="109" rx="4" fill="#5C7AFF"/>
<rect x="346" width="8" height="109" rx="4" fill="#5C7AFF"/>
</svg>
